<svg width="131" height="36" viewBox="0 0 131 36" fill="none" xmlns="http://www.w3.org/2000/svg">
<path d="M20.1895 8.86731H15.434L9.08911 24.462H13.1599L17.8149 12.4193L22.4637 24.462H26.5345L20.1895 8.86731Z" fill="#37A134"/>
<path d="M16.0936 35.9211H16.0622H16.0559H16.0496C13.6624 35.6763 11.3632 34.9546 9.28382 33.825C5.28214 31.6412 2.10969 27.9261 0.727628 23.2131C-0.660712 18.5002 -0.00109382 13.6681 2.18507 9.67057C3.30956 7.6122 4.84239 5.77348 6.70189 4.28618L6.73958 4.2548C6.73958 4.2548 6.73958 4.2548 6.74586 4.24853C9.49741 1.99561 12.8772 0.48949 16.5333 0.0188266C16.5522 0.012551 16.6716 0 16.6904 0L18.2232 3.77159C18.2044 3.77159 18.0787 3.78414 18.0536 3.78414C14.7932 3.98495 11.7652 5.20868 9.33408 7.16664C9.29639 7.19802 9.25869 7.2294 9.221 7.26077C9.15818 7.31098 9.09536 7.36118 9.03882 7.41139H9.03254L9.02626 7.41766L9.01997 7.42394C9.00113 7.43649 8.98856 7.44904 8.96972 7.46159C7.59394 8.59746 6.4506 9.98435 5.60881 11.5281C3.90008 14.6533 3.38495 18.4312 4.47175 22.1149C5.55227 25.7987 8.02741 28.6979 11.1496 30.4049C12.8018 31.3086 14.6424 31.8734 16.5522 32.0491C20.7172 32.3942 24.6372 31.0575 27.6401 28.5975C27.7846 28.4783 27.929 28.3591 28.0672 28.2336L29.6064 32.0114C25.8811 34.8605 21.1193 36.3729 16.0936 35.9211Z" fill="#37A134"/>
<path d="M55.118 6.20026H52.1277V23.6588H55.118V6.20026ZM59.2641 9.68945C60.3446 9.68945 61.155 8.91128 61.155 7.80679C61.155 6.7274 60.3446 5.92413 59.2641 5.92413C58.1836 5.92413 57.3355 6.7274 57.3355 7.80679C57.3355 8.91128 58.1648 9.68945 59.2641 9.68945ZM60.7404 11.183H57.725V23.6588H60.7404V11.183ZM69.7175 8.40296C70.2703 8.40296 70.9362 8.56613 71.7152 8.91128L72.6575 6.57051C71.5582 5.99316 70.4274 5.71704 69.3029 5.71704C66.3378 5.71704 64.3338 7.46164 64.3338 10.6119V11.183H62.3549V13.7121H64.3338V23.6588H67.324V13.7121H71.2315V11.183H67.324V10.681C67.324 9.21251 68.1721 8.40296 69.7175 8.40296Z" fill="black"/>
<path d="M46.769 17.4083C46.769 18.4877 46.4234 19.3851 45.7324 20.1193C45.0414 20.8599 43.9734 21.2238 42.8929 21.2238C41.8124 21.2238 40.9329 20.8599 40.2481 20.1193C39.576 19.3914 39.2367 18.4877 39.2367 17.4083C39.2367 16.354 39.576 15.4504 40.2481 14.7224C40.9329 13.9819 41.8124 13.6179 42.8929 13.6179C43.9734 13.6179 45.0414 13.9882 45.7324 14.7224C46.4234 15.4566 46.769 16.354 46.769 17.4083ZM46.6999 12.344C45.5816 11.3838 44.2121 10.8881 42.6291 10.8881C40.8575 10.8881 39.1676 11.5093 37.9929 12.7268C36.8181 13.9442 36.2465 15.5068 36.2465 17.3644C36.2465 19.2282 36.8181 20.8097 37.9929 22.0773C39.1676 23.3387 40.8324 23.96 42.6291 23.96C44.2624 23.96 45.4686 23.4893 46.6999 22.5103V23.6587H49.5519V11.183H46.6999V12.344Z" fill="black"/>
<path d="M91.4283 11.0511C89.4997 11.0511 87.7721 11.9673 86.9429 13.348C86.233 11.8983 84.7127 11.0511 83.0354 11.0511C81.4021 11.0511 80.0703 11.8795 79.3353 13.1848V11.3712H77.3313V23.6649H79.3793V16.7681C79.3793 14.4713 80.7613 12.9589 82.759 12.9589C84.6688 12.9589 85.8184 14.3583 85.8184 16.7242V23.6649H87.8663V16.7242C87.8663 14.4964 89.2233 12.9589 91.221 12.9589C93.0868 12.9589 94.2552 14.2893 94.2552 16.6803V23.6649H96.3032V16.379C96.3032 14.7474 95.8697 13.4609 94.9965 12.5008C94.1233 11.5343 92.9234 11.0511 91.4283 11.0511ZM98.3574 17.5086C98.3574 19.3223 98.9605 20.8598 100.179 22.1023C101.398 23.3386 102.937 23.9599 104.797 23.9599C106.662 23.9599 108.201 23.3386 109.42 22.1023C110.639 20.8598 111.236 19.3223 111.236 17.5086C111.236 15.7138 110.62 14.1952 109.401 12.9589C108.183 11.6912 106.662 11.0762 104.797 11.0762C102.937 11.0762 101.398 11.6912 100.179 12.9589C98.9605 14.1952 98.3574 15.7138 98.3574 17.5086ZM109.169 17.5086C109.169 18.77 108.754 19.8494 107.906 20.7468C107.052 21.6379 106.015 22.0772 104.797 22.0772C103.578 22.0772 102.548 21.6379 101.693 20.7468C100.845 19.8494 100.431 18.77 100.431 17.5086C100.431 16.2661 100.845 15.2055 101.693 14.3144C102.548 13.417 103.578 12.9589 104.797 12.9589C106.015 12.9589 107.052 13.417 107.906 14.3144C108.754 15.2055 109.169 16.2661 109.169 17.5086ZM119.76 11.0762C117.939 11.0762 116.469 11.8105 115.344 13.2538V6.27545H113.296V23.6649H115.344V21.845C116.444 23.2507 117.92 23.9599 119.735 23.9599C121.507 23.9599 122.958 23.3449 124.127 22.1023C125.308 20.8409 125.898 19.3223 125.898 17.5275C125.898 15.7389 125.301 14.2203 124.127 12.9589C122.952 11.6912 121.507 11.0762 119.76 11.0762ZM119.528 22.0333C118.24 22.0333 117.204 21.594 116.425 20.7217C115.639 19.8494 115.25 18.77 115.25 17.5086C115.25 16.241 115.639 15.1867 116.425 14.3144C117.204 13.4421 118.24 13.0028 119.528 13.0028C120.791 13.0028 121.815 13.4484 122.606 14.3144C123.404 15.1741 123.806 16.241 123.806 17.5086C123.806 18.77 123.41 19.8431 122.606 20.7217C121.821 21.5877 120.791 22.0333 119.528 22.0333ZM129.171 9.58265C130 9.58265 130.666 8.91744 130.666 8.06397C130.666 7.21678 130 6.5704 129.171 6.5704C128.273 6.5704 127.632 7.21678 127.632 8.06397C127.632 8.91744 128.273 9.58265 129.171 9.58265ZM130.164 11.3712H128.116V23.6649H130.164V11.3712Z" fill="black"/>
</svg>
